<svg width="50" height="50" viewBox="0 0 50 50" fill="none" xmlns="http://www.w3.org/2000/svg">
<circle cx="25" cy="25" r="25" fill="white"/>
<path d="M30.8739 34.1176H19.1261C17.5027 34.1176 16.1765 32.7914 16.1765 31.168V19.4202C16.1765 17.7968 17.5027 16.4706 19.1261 16.4706H30.8739C32.4973 16.4706 33.8235 17.7968 33.8235 19.4202V31.168C33.8235 32.7986 32.5045 34.1176 30.8739 34.1176Z" fill="#006C80"/>
<path d="M25.0038 29.8273C23.7935 29.8273 22.6556 29.3562 21.8005 28.501C20.9453 27.6458 20.4742 26.508 20.4742 25.2977C20.4742 24.0874 20.9453 22.9496 21.8005 22.0944C22.6556 21.2393 23.7935 20.7682 25.0038 20.7682C26.214 20.7682 27.3519 21.2393 28.207 22.0944C29.0622 22.9496 29.5333 24.0874 29.5333 25.2977C29.5333 26.508 29.0622 27.6458 28.207 28.501C27.3446 29.3562 26.214 29.8273 25.0038 29.8273ZM25.0038 21.7321C23.0397 21.7321 21.4381 23.3265 21.4381 25.2977C21.4381 27.2617 23.0325 28.8634 25.0038 28.8634C26.9678 28.8634 28.5694 27.269 28.5694 25.2977C28.5622 23.3337 26.9678 21.7321 25.0038 21.7321Z" fill="white"/>
<path d="M30.4162 20.6194C30.8965 20.6194 31.2859 20.23 31.2859 19.7497C31.2859 19.2694 30.8965 18.88 30.4162 18.88C29.9359 18.88 29.5465 19.2694 29.5465 19.7497C29.5465 20.23 29.9359 20.6194 30.4162 20.6194Z" fill="white"/>
</svg>
