<svg width="50" height="50" viewBox="0 0 50 50" fill="none" xmlns="http://www.w3.org/2000/svg">
<circle cx="25" cy="25" r="25" fill="white"/>
<path d="M19.3548 21.7703H15.0528V35.4892H19.3548V21.7703Z" fill="#006C80"/>
<path d="M30.9921 21.4728C30.8335 21.453 30.665 21.443 30.4965 21.4331C28.0877 21.334 26.7297 22.7614 26.2539 23.376C26.1251 23.5445 26.0656 23.6436 26.0656 23.6436V21.8098H21.9519V35.5287H26.0656H26.2539C26.2539 34.131 26.2539 32.7433 26.2539 31.3456C26.2539 30.5923 26.2539 29.8389 26.2539 29.0856C26.2539 28.1538 26.1846 27.1626 26.6504 26.3101C27.0469 25.5964 27.7606 25.2395 28.5635 25.2395C30.9425 25.2395 30.9921 27.3905 30.9921 27.5888C30.9921 27.5987 30.9921 27.6086 30.9921 27.6086V35.5882H35.2941V26.6372C35.2941 23.5742 33.7379 21.7702 30.9921 21.4728Z" fill="#006C80"/>
<path d="M17.2038 19.9959C18.5834 19.9959 19.7018 18.8775 19.7018 17.4979C19.7018 16.1184 18.5834 15 17.2038 15C15.8242 15 14.7059 16.1184 14.7059 17.4979C14.7059 18.8775 15.8242 19.9959 17.2038 19.9959Z" fill="#006C80"/>
</svg>
